<?xml version="1.0" encoding="utf-8"?>
<!-- Generator: Adobe Illustrator 27.0.1, SVG Export Plug-In . SVG Version: 6.00 Build 0)  -->
<svg version="1.1" id="Layer_2_00000124840704568346113650000007896018686698675895_"
	 xmlns="http://www.w3.org/2000/svg" xmlns:xlink="http://www.w3.org/1999/xlink" x="0px" y="0px" viewBox="0 0 1188.4 463.2"
	 style="enable-background:new 0 0 1188.4 463.2;" xml:space="preserve">
<style type="text/css">
	.st0{fill:#C70D29;}
</style>
<g id="Layer_1-2">
	<g>
		<g>
			<path class="st0" d="M0,199.3h48.4l18,56.2c3.3,10.2,5,20,5,20h0.5c0,0,1.8-9.8,5-20.1l17.5-56.1h48.4v127.3h-33.1v-94.3h-0.5
				c0,0-3.3,14.5-8.2,30.6l-19.3,63.7H58.2l-20-63.7c-5.2-16.3-7.8-30.4-7.8-30.4h-0.5v94.1H0V199.3L0,199.3z"/>
			<path class="st0" d="M243,303.6h-44.2l-7.5,23h-31.8l44.1-127.2h37.3l44.6,127.2h-35.1L243,303.6L243,303.6z M216.1,247.1
				l-9.6,32.4h28.9l-9.5-32.3c-3.8-13-4.7-20.1-4.7-20.1h-0.3C220.7,227.6,219.7,234.8,216.1,247.1L216.1,247.1z"/>
			<path class="st0" d="M350.8,281.2H336v45.4h-33.8V199.3H354c7.6,0,17.5,0.7,26.1,4.2c13,5.2,23.8,15,23.8,34.1
				c0,18.1-11.1,29.4-23.3,34.9v0.3l28.8,53.7h-35.8L350.8,281.2z M349.3,258.2c10.3,0,20.3-4.5,20.3-18.5c0-15.1-12.3-18.1-20-18.1
				H336v36.6H349.3z"/>
			<path class="st0" d="M462.6,326.6h-33.8V199.3h33.8v50.6l39.2-50.6h36.8l-44.1,52.9l45.4,74.3h-38.3L472,278l-9.5,11.5
				L462.6,326.6L462.6,326.6z"/>
			<path class="st0" d="M557.2,199.3h85.2v24.6H591v27.4h49.7v24H591v27h53.2v24.3h-87L557.2,199.3L557.2,199.3z"/>
			<path class="st0" d="M763.6,225.1h-34.1v101.5h-33.8V225.1h-34.1v-25.8h102L763.6,225.1L763.6,225.1z"/>
			<path class="st0" d="M822.5,326.6V199.3h54.4c32.6,0,46.4,11.1,46.4,33.3c0,14.6-12.1,23.1-21.5,25.4v0.7
				c16,2.7,27.8,13,27.8,30.6c0,22.5-18.1,37.3-48.7,37.3L822.5,326.6L822.5,326.6z M873.4,251.4c11,0,17-4.8,17-14.8
				s-6-14.8-17-14.8h-17.1v29.6L873.4,251.4L873.4,251.4z M877.6,303.3c11.3,0,18-4.2,18-16.1c0-9.6-6.7-15-18-15h-21.3v31.1H877.6z
				"/>
			<path class="st0" d="M1022.1,303.6h-44.2l-7.5,23h-31.8l44.1-127.2h37.3l44.6,127.2h-35.1L1022.1,303.6L1022.1,303.6z
				 M995.2,247.1l-9.7,32.4h28.9l-9.5-32.3c-3.8-13-4.7-20.1-4.7-20.1h-0.3C999.8,227.6,998.8,234.8,995.2,247.1L995.2,247.1z"/>
			<path class="st0" d="M1129.9,281.2h-14.8v45.4h-33.8V199.3h51.7c7.7,0,17.5,0.7,26.1,4.2c13,5.2,23.8,15,23.8,34.1
				c0,18.1-11.1,29.4-23.3,34.9v0.3l28.8,53.7h-35.8L1129.9,281.2L1129.9,281.2z M1128.4,258.2c10.3,0,20.3-4.5,20.3-18.5
				c0-15.1-12.3-18.1-20-18.1h-13.6v36.6H1128.4L1128.4,258.2z"/>
		</g>
		<g>
			<path class="st0" d="M246.7,448.3h-25.8l-4.4,13.4H198l25.7-74.2h21.7l26,74.2H251L246.7,448.3L246.7,448.3z M231,415.4
				l-5.6,18.9h16.9l-5.5-18.8c-2.2-7.6-2.7-11.7-2.7-11.7h-0.2C233.7,404,233.1,408.2,231,415.4L231,415.4z"/>
			<path class="st0" d="M304,461.7v-74.2h31.7c19,0,27.1,6.5,27.1,19.4c0,8.5-7.1,13.5-12.5,14.8v0.4c9.3,1.5,16.2,7.6,16.2,17.8
				c0,13.1-10.6,21.7-28.4,21.7L304,461.7L304,461.7z M333.7,417.9c6.4,0,9.9-2.8,9.9-8.6s-3.5-8.6-9.9-8.6h-10v17.3H333.7z
				 M336.1,448.1c6.6,0,10.5-2.4,10.5-9.4c0-5.6-3.9-8.7-10.5-8.7h-12.4v18.1L336.1,448.1L336.1,448.1z"/>
			<path class="st0" d="M420.4,448.3h-25.8l-4.4,13.4h-18.5l25.7-74.2h21.7l26,74.2h-20.5L420.4,448.3L420.4,448.3z M404.7,415.4
				l-5.6,18.9h16.9l-5.5-18.8c-2.2-7.6-2.7-11.7-2.7-11.7h-0.2C407.4,404,406.8,408.2,404.7,415.4L404.7,415.4z"/>
			<path class="st0" d="M483.2,435.2h-8.6v26.5h-19.7v-74.2h30.2c4.5,0,10.2,0.4,15.2,2.4c7.6,3,13.9,8.7,13.9,19.9
				c0,10.6-6.5,17.2-13.6,20.4v0.2l16.8,31.3h-20.9L483.2,435.2L483.2,435.2z M482.4,421.9c6,0,11.8-2.6,11.8-10.8
				c0-8.8-7.2-10.6-11.6-10.6h-8v21.3L482.4,421.9L482.4,421.9z"/>
			<path class="st0" d="M570.7,461.7H551v-74.2h48v14.4h-28.3v18.6h27.2v14.2h-27.2L570.7,461.7L570.7,461.7z"/>
			<path class="st0" d="M645.8,386.5c23.7,0,35.8,14.6,35.8,38.4s-13,38.4-35.8,38.4c-24.3,0-36.1-14.7-36.1-38.4
				S623.3,386.5,645.8,386.5z M660.2,424.9c0-16.4-6-24.6-14.5-24.6c-9.8,0-14.5,8.2-14.5,24.6s4.3,24.4,14.5,24.4
				S660.2,441.2,660.2,424.9z"/>
			<path class="st0" d="M722.7,435.2H714v26.5h-19.7v-74.2h30.2c4.5,0,10.2,0.4,15.2,2.4c7.6,3,13.9,8.7,13.9,19.9
				c0,10.6-6.5,17.2-13.6,20.4v0.2l16.8,31.3h-20.8L722.7,435.2L722.7,435.2z M721.8,421.9c6,0,11.8-2.6,11.8-10.8
				c0-8.8-7.2-10.6-11.6-10.6h-8v21.3L721.8,421.9L721.8,421.9z"/>
			<path class="st0" d="M834,448.3h-25.8l-4.4,13.4h-18.5l25.7-74.2h21.7l26,74.2h-20.5L834,448.3L834,448.3z M818.3,415.4
				l-5.6,18.9h16.9l-5.5-18.8c-2.2-7.6-2.7-11.7-2.7-11.7h-0.2C821,404,820.4,408.2,818.3,415.4L818.3,415.4z"/>
			<path class="st0" d="M868.5,387.5h19.7V447h29.4v14.7h-49.1V387.5z"/>
			<path class="st0" d="M930.8,387.5h19.7V447h29.4v14.7h-49.1V387.5z"/>
		</g>
		<g>
			<path class="st0" d="M96,84.2V63h10c9.3,0,16-5.3,16-14.5s-7.3-13.8-14-13.8c-10.3,0-14.1,6.8-14.6,14.6H61.8
				c0.8-18,12-38.4,47.6-38.4c30.3,0,45.6,15.1,45.6,32.9c0,13.5-6.6,24-20.8,27.8v0.5c15.8,3.7,23.8,13.5,23.8,29.4
				c0,19.5-16.3,36.9-48.4,36.9c-36.3,0-47.7-19.6-49.1-38.9h33.8c1,10,7.3,14.5,15.1,14.5c9.7,0,15.8-6.3,15.8-15.1
				s-6.2-14.8-15.6-14.8L96,84.2L96,84.2z"/>
			<path class="st0" d="M237.9,0h23.5l-75.5,152.7h-23.4L237.9,0z"/>
			<path class="st0" d="M264.3,55.6c0.5-27.5,16.5-44.6,48.7-44.6s45.4,15.6,45.4,35.8c0,18.6-10,28.8-27.9,45.1l-20.6,18.6v0.3
				h48.4v25.3h-96.1v-17.5l44.2-41.4c14-13.1,18.3-20.3,18.3-28.4c0-9.3-5-14.3-12.8-14.3c-7,0-15.3,4.2-15.3,21.1L264.3,55.6
				L264.3,55.6z"/>
			<path class="st0" d="M465.8,110.1v25.9h-32.1v-25.9h-58.5V88.3l51.4-75.5h39.2V86h14.3v24.1L465.8,110.1L465.8,110.1z
				 M434.5,86.3V38.3h-0.3c0,0-2.2,6.5-6.8,13.6l-22.1,34.4L434.5,86.3L434.5,86.3z"/>
			<path class="st0" d="M548.9,11.3c34.3,0,53.4,20,53.4,63.7s-20.1,63.4-53.4,63.4S496,118.4,496,75S517.3,11.3,548.9,11.3z
				 M566.2,74.7c0-30.6-8-39.9-17.3-39.9c-10,0-17.1,9.3-17.1,39.9c0,32.1,6.7,39.6,17.1,39.6S566.2,105.1,566.2,74.7z"/>
			<path class="st0" d="M654.5,8.8h35.1l22.6,76.5c3.7,12,3.8,18.6,3.8,18.6h0.3c0,0,0.7-6.7,4-18.5l23.1-76.7h31.9l-41.1,127.3H696
				L654.5,8.8L654.5,8.8z"/>
			<path class="st0" d="M792.3,8.8h33.8v127.3h-33.8V8.8z"/>
			<path class="st0" d="M884.4,73.3c0,27.1,9.3,40.9,23.6,40.9c10.8,0,19-6.7,20.3-23.3h34.3c-1.2,29.3-21.3,47.7-53.7,47.7
				C866,138.7,848,113.3,848,75c0-42.2,21.1-68,60-68c36.1,0,53.6,19,54.7,47.7h-34.4c-0.8-16-9.8-23.3-20.3-23.3
				C895.7,31.4,884.4,43.9,884.4,73.3L884.4,73.3z"/>
			<g>
				<path class="st0" d="M1038.5,30.1c-0.2-3.7-3-7.4-8.8-7.4c-5.1,0-8.7,2.5-8.7,6.8c0,4,2.1,6.3,8.4,7.5l11.6,2.1
					c12.5,2.3,19.6,9.4,19.6,20.6c0,17.2-11.7,25.9-31.3,25.9s-29.9-7.1-30.6-23h20.5c0.6,5.6,4.5,9,10.7,9c6.6,0,10.4-3.4,10.4-7.8
					s-2.4-6.5-9.4-7.8l-11.4-2.2c-9.7-1.9-18.7-8.4-18.7-21.3c0-13.7,10.1-23.8,29.2-23.8c20.8,0,28.4,9.3,28.8,21.3L1038.5,30.1
					L1038.5,30.1z"/>
				<path class="st0" d="M1128,24.9h-19.9v59.1h-19.7V24.9h-19.9v-15h59.4L1128,24.9L1128,24.9z"/>
				<circle class="st0" cx="1065.2" cy="117.8" r="16.5"/>
			</g>
		</g>
	</g>
</g>
</svg>
