<?xml version="1.0" encoding="utf-8"?>
<!-- Generator: Adobe Illustrator 27.0.1, SVG Export Plug-In . SVG Version: 6.00 Build 0)  -->
<svg version="1.1" id="Layer_2_00000124158825426188256330000017172398732915275156_"
	 xmlns="http://www.w3.org/2000/svg" xmlns:xlink="http://www.w3.org/1999/xlink" x="0px" y="0px" viewBox="0 0 1446.9 152.5"
	 style="enable-background:new 0 0 1446.9 152.5;" xml:space="preserve">
<style type="text/css">
	.st0{fill:#C70D29;}
</style>
<g id="Layer_1-2">
	<g>
		<path class="st0" d="M0,145.9c6.4,0,10.9-1.1,13.6-3.2c2.5-2.1,3.8-5.7,3.8-10.8V19.8c0-4.1-1.3-7.1-4-8.8C10.7,9.3,6.3,8.4,0,8.4
			v-5h34.8l48.2,128.7L130.9,3.4h36v5c-6.9,0-11.7,0.9-14.2,2.6c-2.1,1.7-3.2,4.7-3.2,8.8v112.1c0,4.7,1.2,8.1,3.6,10.4
			c2.8,2.4,7.4,3.6,13.8,3.6v5.2h-49.8v-5.2c7.2,0,12.3-1.2,15.4-3.6c2.8-2.1,4.2-5.6,4.2-10.4V10.4h-2.2L81.3,152.5h-3.2L25.6,13.4
			h-2.4v118.5c0,5.1,1.3,8.7,4,10.8c2.8,2.1,8,3.2,15.6,3.2v5.2H0V145.9L0,145.9z"/>
		<path class="st0" d="M309.2,131.3c1.7,5.5,4.3,9.3,7.6,11.4c2.9,2.1,7.3,3.2,13,3.2v5.2h-52v-5.2c8.8,0,14.5-0.9,17-2.6
			c2.9-2,3.4-5.7,1.4-11.2L283,97.3h-61.9l-11,30c-2.5,7.5-2.5,12.5,0,15c2.4,2.4,8.2,3.6,17.4,3.6v5.2h-44.6v-5.2
			c5.7,0,9.9-1.2,12.6-3.6c2.8-2.7,5.8-8.5,9-17.4L247.4,4.6L258.8,0L309.2,131.3z M223.2,91.3h57.5l-29.2-77.7L223.2,91.3
			L223.2,91.3z"/>
		<path class="st0" d="M345.8,145.9c7.5,0,12.7-1.2,15.6-3.6c2.8-2.1,4.2-5.8,4.2-11V21c0-4.7-1.4-7.9-4.2-9.6
			c-2.8-1.7-8-2.6-15.6-2.6V3.6h66.7c15.4,0,27.4,3.4,36,10.2c8.3,6.5,12.4,15.2,12.4,26s-3.3,18.8-9.8,25.4
			c-7.1,7.2-17.1,11.2-30.2,12l33.2,59c2,3.7,4.7,6.3,8,7.6c2.9,1.3,7.3,2,13,2v5.2h-27.8l-40.4-73.5h-28.4v53.7
			c0,5.1,1.5,8.7,4.4,11c2.9,2.4,8,3.6,15.2,3.6v5.2h-52.2L345.8,145.9L345.8,145.9z M416.2,72.5c10.4,0,18.3-3.4,23.6-10.2
			c4.5-5.7,6.8-13.2,6.8-22.4c0-9.7-3.1-17.4-9.4-22.8c-6.1-5.5-14.7-8.2-25.6-8.2h-18.2c-5.2,0-8.9,0.9-11.2,2.6
			c-2.5,2-3.8,5.2-3.8,9.6v51.4L416.2,72.5L416.2,72.5z"/>
		<path class="st0" d="M491,145.9c6.7,0,11.2-0.9,13.6-2.8c2.4-1.7,3.6-4.7,3.6-8.8V22.4c0-5.7-1.1-9.5-3.4-11.2
			c-2.3-1.9-6.9-2.8-13.8-2.8v-5h47.8v5c-6.8,0-11.5,0.9-14,2.6c-2.4,1.9-3.6,5.5-3.6,10.8v63.5l70.1-63.1c3.1-3.5,3.7-6.5,1.8-9.2
			c-2.1-3.1-7.3-4.6-15.4-4.6v-5H626v5c-4.7,0-8.7,1-12.2,3c-2.9,1.7-7.2,5.1-12.8,10l-41.4,37.4l51.2,75.5c3.2,5.1,5.9,8.2,8.2,9.4
			c2.5,1.5,7.3,2.2,14.2,2.2v5.2h-52.8v-5.2c7.5,0,12.4-0.5,14.8-1.6c3.2-1.3,3.7-3.9,1.6-7.6L550.3,67l-29,26.6v40.8
			c0,4.1,1.1,7,3.4,8.6c2.5,1.9,7.3,2.8,14.2,2.8v5.2H491L491,145.9L491,145.9z"/>
		<path class="st0" d="M649.2,145.5c6.3,0,10.8-1.1,13.6-3.4c2.9-2.1,4.4-5.7,4.4-10.6V21.6c0-4.7-1.5-8.1-4.4-10.2
			c-2.8-2-7.3-3-13.6-3v-5h106.1l14.4,35l-3,2l-5.2-6.8c-6-8.1-11.3-13.8-15.8-17c-7.9-5.5-17.6-8.2-29.2-8.2h-20.2
			c-5.5,0-9.5,1-12,3c-2.7,2.1-4,5.5-4,10.2V71h31c7.5,0,12.9-1.9,16.4-5.6c3.9-4,5.8-10.7,5.8-20h4.8v57.5h-4.8
			c0-8.9-1.9-15.6-5.8-19.8c-3.7-4.1-9.2-6.2-16.4-6.2h-31v54.7c0,4.8,1.3,8.3,4,10.6s6.8,3.4,12.4,3.4h19c11.7,0,21.8-2.5,30.2-7.6
			c8-4.9,16.2-13.3,24.6-25l3.6,2l-13.8,35.8H649.2V145.5L649.2,145.5z"/>
		<path class="st0" d="M830.6,146.3c7.6,0,13-0.6,16.2-1.8c4.7-1.7,7-4.9,7-9.4V20.2c0-4.4-1.3-7.4-3.8-9c-2.5-1.7-7-2.6-13.4-2.6
			c-11.9,0-21.8,3.2-29.6,9.6c-5.1,4-10.5,10.8-16.4,20.4l-3-1.4l12-33.8h121.5l12,35.2l-3.4,1.2l-2.2-3.4
			c-5.6-9.6-10.5-16.1-14.6-19.6c-6.5-5.5-15.1-8.2-25.6-8.2c-7.3,0-12.6,0.9-15.8,2.6c-3.3,1.7-5,4.7-5,9v114.9
			c0,4.7,1.9,7.8,5.8,9.4c3.1,1.2,8.9,1.8,17.4,1.8v5.2h-59L830.6,146.3L830.6,146.3z"/>
		<path class="st0" d="M1021.4,145.9c7.7,0,12.9-0.9,15.6-2.8c2.8-1.9,4.2-5.5,4.2-10.8V23c0-5.2-1.4-8.9-4.2-11
			c-2.9-2.1-8.1-3.2-15.6-3.2V3.6h71.1c15.1,0,27,3.2,35.8,9.6c8.5,6.3,12.8,14.5,12.8,24.6c0,7.7-2.3,14.2-7,19.4
			c-5.3,6-13.7,10.6-25,13.8c13.3,2.5,23.3,7.3,29.8,14.4c5.9,6.4,8.8,14.8,8.8,25c0,11.2-4.3,20.6-13,28
			c-9.5,8.4-22.3,12.6-38.4,12.6h-74.9L1021.4,145.9L1021.4,145.9z M1091.9,69.9c9.9,0,18.3-3.6,25.4-10.8
			c6.5-6.7,9.8-14.1,9.8-22.2c0-7.3-2.8-13.6-8.4-18.8c-6.4-6.1-15.3-9.2-26.8-9.2h-20.6c-6.1,0-10.5,1.1-13.2,3.2
			c-2.7,2.3-4,5.9-4,11v46.8L1091.9,69.9L1091.9,69.9z M1054,132.3c0,5.2,1.3,8.8,4,10.8c2.4,1.9,6.8,2.8,13.2,2.8h22.4
			c12.4,0,22.4-3.7,30-11.2c6.9-6.7,10.4-14.8,10.4-24.2s-3.7-17.6-11-24.6c-7.6-7.2-16.9-10.8-27.8-10.8H1054L1054,132.3
			L1054,132.3z"/>
		<path class="st0" d="M1281,131.3c1.7,5.5,4.3,9.3,7.6,11.4c2.9,2.1,7.3,3.2,13,3.2v5.2h-52v-5.2c8.8,0,14.5-0.9,17-2.6
			c2.9-2,3.4-5.7,1.4-11.2l-13.2-34.8H1193l-11,30c-2.5,7.5-2.5,12.5,0,15c2.4,2.4,8.2,3.6,17.4,3.6v5.2h-44.6v-5.2
			c5.7,0,9.9-1.2,12.6-3.6c2.8-2.7,5.8-8.5,9-17.4l42.8-120.3l11.4-4.6L1281,131.3L1281,131.3z M1195,91.3h57.4l-29.2-77.7
			L1195,91.3z"/>
		<path class="st0" d="M1317.6,145.9c7.5,0,12.7-1.2,15.6-3.6c2.8-2.1,4.2-5.8,4.2-11V21c0-4.7-1.4-7.9-4.2-9.6
			c-2.8-1.7-8-2.6-15.6-2.6V3.6h66.7c15.3,0,27.4,3.4,36,10.2c8.3,6.5,12.4,15.2,12.4,26s-3.3,18.8-9.8,25.4
			c-7.1,7.2-17.2,11.2-30.2,12l33.2,59c2,3.7,4.7,6.3,8,7.6c2.9,1.3,7.3,2,13,2v5.2h-27.8l-40.4-73.5h-28.4v53.7
			c0,5.1,1.5,8.7,4.4,11c2.9,2.4,8,3.6,15.2,3.6v5.2h-52.2L1317.6,145.9L1317.6,145.9z M1388,72.5c10.4,0,18.3-3.4,23.6-10.2
			c4.5-5.7,6.8-13.2,6.8-22.4c0-9.7-3.1-17.4-9.4-22.8c-6.1-5.5-14.7-8.2-25.6-8.2h-18.2c-5.2,0-8.9,0.9-11.2,2.6
			c-2.5,2-3.8,5.2-3.8,9.6v51.4L1388,72.5L1388,72.5z"/>
	</g>
</g>
</svg>
